# xmcd
#
# Track frame offsets:
#	150
#	14543
#	29142
#	42044
#	55351
#	67257
#	81020
#	95684
#	109942
#	121764
#	135197
#	149085
#	161233
#	174962
#	189571
#	199556
#	211966
#	224062
#	241292
#	254215
#	266237
#	277624
#	289355
#	303158
#	316591
#	330058
#
# Disc length: 4575 seconds
#
# Revision: 1
# Processed by: cddbd v1.5.2PL0 Copyright (c) Steve Scherf et al.
# Submitted via: EZCDAudioConverter 7.0.6.1
#
DISCID=8a11dd1a
DTITLE=Various Artist - Down Home Blues: Chicago 2/5
DYEAR=1900
DGENRE=Blues
TTITLE0=Pete Franklin - Down Behind The Rise
TTITLE1=Pete Franklin - Casey Brown Blues
TTITLE2=Mildred White - Kind Hearted Woman
TTITLE3=Mildred White - Cutting Out On Me
TTITLE4=Muddy Waters - Last Time I Fool Around With You
TTITLE5=Muddy Waters - You Gonna Need My Help
TTITLE6=Baby Face Leroy - My Head Can't Rest Anymore
TTITLE7=Baby Face Leroy - Take A Little Walk With Me
TTITLE8=Gray Haired Bill - Gertrude
TTITLE9=Gray Haired Bill - I'm A Hard Working Man
TTITLE10=The Nighthawks - Black Angel Blues
TTITLE11=Jimmy Rogers - Ludella [Alternate Take]
TTITLE12=Muddy Waters - Rollin' Stone [Alternate Take]
TTITLE13=Floyd Jones - Dark Road
TTITLE14=Floyd Jones - Overseas
TTITLE15=Floyd Jones - Playhouse
TTITLE16=Muddy Waters - Long Distance Call
TTITLE17=Muddy Waters - All Night Long [Alternate Take]
TTITLE18=J.B. Lenoir - Let's Roll [Alternate Take]
TTITLE19=Howlin' Wolf - Howling Wolf Boogie
TTITLE20=Johnny Shines - Ramblin'
TTITLE21=Johnny Shines - Ain't Doin' No Good
TTITLE22=Snooky Pryor - Fine Boogie
TTITLE23=Memphis Minnie - Conjur Man
TTITLE24=Little Walter - Juke [Alternate Take]
TTITLE25=Little Walter - Can't Hold Out Much Longer [Alternate Take]
EXTD=
EXTT0=
EXTT1=
EXTT2=
EXTT3=
EXTT4=
EXTT5=
EXTT6=
EXTT7=
EXTT8=
EXTT9=
EXTT10=
EXTT11=
EXTT12=
EXTT13=
EXTT14=
EXTT15=
EXTT16=
EXTT17=
EXTT18=
EXTT19=
EXTT20=
EXTT21=
EXTT22=
EXTT23=
EXTT24=
EXTT25=
PLAYORDER=
